<svg id="Layer_1" data-name="Layer 1" xmlns="http://www.w3.org/2000/svg" viewBox="0 0 319.95 340.4"><defs><style>.cls-1{fill:#0047ba;}</style></defs><path class="cls-1" d="M.1,170q0-60.72,0-121.43C.17,25,15.36,6.1,38,1c8.26-1.87,16.38-.7,24.53.66,40,6.7,79.95,13.49,120,20,23.94,3.9,40.91,22.67,41.33,46.88.31,17.86.16,35.73,0,53.59a15.87,15.87,0,1,1-31.74,0c-.13-16.86,0-33.73-.05-50.59,0-11-5.08-16.63-16-18.45Q114.17,42.81,52.35,32.38C40.43,30.37,32,37.32,32,49.51q0,120.5,0,241c0,12.37,8.51,19.33,20.63,17.28q59.78-10.08,119.59-20L177,287c9.62-1.5,15-7.67,15.05-17.44.06-17.37-.06-34.73.08-52.1a15.55,15.55,0,0,1,12-14.93,16.08,16.08,0,0,1,17.69,7.54,15.83,15.83,0,0,1,2.09,8.24c0,17.74.21,35.48-.08,53.22-.4,24.4-17.4,43.16-41.55,47.07-36.81,6-73.58,12.26-110.37,18.4-6.39,1.07-12.79,2.21-19.22,3C26.86,343.37,1.23,322,.32,295.93c-.57-16.47-.2-33-.21-49.47Q.08,208.23.1,170Z"/><path class="cls-1" d="M271.16,186H146.49a23.35,23.35,0,0,1-7.06-.6c-7.36-2.27-12.38-9.66-11.4-16.9,1.17-8.65,7.47-14.28,16.4-14.29q58.09-.08,116.19,0H271c.36-1.55-.74-2.22-1.37-3.06q-13-17.4-26.05-34.77c-3.4-4.51-4.54-9.44-2.92-14.82,1.9-6.33,6.31-10.09,12.8-11.15s11.55,1.32,15.4,6.39c8.38,11,16.65,22.16,25,33.24q11.14,14.82,22.34,29.6c4.8,6.35,5,14.19.35,20.46q-23.7,31.62-47.53,63.16c-4,5.3-9.36,7.75-16.07,6.45a15.06,15.06,0,0,1-12.31-11.21,15.74,15.74,0,0,1,2.86-14.5q12.94-17.2,25.82-34.48C270,188.56,271.16,187.79,271.16,186Z"/></svg>