<?xml version="1.0" encoding="utf-8"?>
<!-- Generator: Adobe Illustrator 23.0.1, SVG Export Plug-In . SVG Version: 6.00 Build 0)  -->
<svg version="1.1" id="Layer_1" xmlns="http://www.w3.org/2000/svg" xmlns:xlink="http://www.w3.org/1999/xlink" x="0px" y="0px"
	 viewBox="0 0 384.03 384.03" style="enable-background:new 0 0 384.03 384.03;" xml:space="preserve">
<style type="text/css">
	.st0{fill:#0047BA;}
</style>
<g>
	<polygon class="st0" points="202.65,43.98 202.65,83.22 220.59,102.28 255.34,102.28 255.34,90.05 240.05,57.43 222.83,43.98 	"/>
	<g>
		<path d="M39.03,384.03c-7.47-1.99-14.83-4.2-21.06-9.11C6.59,365.95,0.12,354.28,0.1,339.78c-0.14-98.48-0.13-196.96-0.03-295.44
			C0.1,20.21,20.19,0.15,44.35,0.08c49.99-0.15,99.98-0.04,149.97-0.07c4.79,0,8.71,1.76,12.05,5.11
			c29.59,29.61,59.2,59.22,88.8,88.82c3.26,3.26,4.88,7.15,4.86,11.77c-0.04,8,0.04,16-0.03,23.99
			c-0.08,8.81-6.53,15.47-14.91,15.53c-8.33,0.06-14.93-6.66-15.06-15.39c-0.05-3.11-0.01-6.21-0.01-9.82c-1.55,0-2.87,0-4.19,0
			c-13.25,0-26.49,0.02-39.74-0.01c-26.28-0.06-46.02-19.75-46.07-45.95c-0.03-14.49,0-28.98,0-44.04c-1.46,0-2.78,0-4.09,0
			c-42.99,0-85.98,0-128.97,0c-10.96,0-16.94,5.95-16.94,16.87c-0.01,96.73-0.01,193.46,0,290.19c0,10.94,5.97,16.93,16.88,16.94
			c21.25,0.01,42.49,0,63.74,0.01c9.02,0.01,15,4.62,16.45,12.65c1.33,7.37-2.76,13.63-11.01,16.87c-0.21,0.08-0.37,0.31-0.55,0.48
			C90.03,384.03,64.53,384.03,39.03,384.03z M247.22,89.93c-12.36-12.36-24.81-24.82-37.1-37.12c0,7.68-0.34,15.89,0.1,24.07
			c0.37,6.77,6.16,12.57,12.95,12.94C231.35,90.27,239.56,89.93,247.22,89.93z"/>
		<path d="M170.28,384.03c-6.35-2.45-11.08-6.44-11.61-13.64c-0.22-2.91,0.52-5.93,1.09-8.85c2.06-10.65,4.13-21.31,6.4-31.92
			c3.11-14.55,10.13-27,20.64-37.51c42.84-42.84,85.66-85.68,128.52-128.5c6.9-6.89,15.64-6.91,22.55-0.05
			c13.74,13.64,27.45,27.31,41.03,41.11c2.11,2.14,3.44,5.05,5.14,7.6c0,2.25,0,4.5,0,6.75c-2.03,3.08-3.6,6.61-6.15,9.17
			c-42.01,42.2-84.12,84.29-126.28,126.34c-3.69,3.68-7.77,7.04-11.96,10.16c-11.33,8.44-24.65,11.59-38.23,14.11
			c-8.17,1.51-16.26,3.47-24.38,5.23C174.78,384.03,172.53,384.03,170.28,384.03z M193.11,349.7c1.99-0.35,3.8-0.74,5.63-0.97
			c13.82-1.78,24.87-8.23,34.69-18.19c36.84-37.37,74.11-74.32,111.21-111.43c1.02-1.02,2-2.09,2.75-2.87
			c-7.2-7.2-14.08-14.07-21.6-21.59c-0.74,1.01-1.48,2.36-2.53,3.42c-36.82,36.87-73.41,73.96-110.65,110.4
			C200.84,319.95,194.33,333.09,193.11,349.7z"/>
		<path class="st0" d="M150.17,174.03c-24.86,0-49.72,0.05-74.57-0.02c-10.95-0.03-18.21-10.01-14.71-19.98
			c2.16-6.15,7.73-9.97,14.79-9.98c19.24-0.03,38.47-0.01,57.71-0.01c30.35,0,60.71-0.04,91.06,0.02
			c10.95,0.02,18.21,9.99,14.71,19.97c-2.19,6.24-7.8,9.99-15.17,10C199.38,174.04,174.78,174.03,150.17,174.03z"/>
		<path class="st0" d="M135.43,234.02c-20.12,0-40.23,0.05-60.35-0.03c-7.27-0.03-12.94-4.68-14.65-11.64
			c-1.54-6.28,1.32-13.2,7.2-16.23c2.35-1.21,5.21-2,7.84-2.01c40.11-0.12,80.22-0.11,120.32-0.07c8.77,0.01,15.44,6.61,15.44,14.98
			c0,8.37-6.67,14.95-15.45,14.98C175.66,234.07,155.54,234.03,135.43,234.02z"/>
		<path class="st0" d="M107.22,294.03c-10.36,0-20.72,0.03-31.08-0.01c-9.4-0.03-16.13-6.34-16.11-15.03
			c0.02-8.7,6.74-14.94,16.18-14.95c20.72-0.02,41.44-0.03,62.16,0c9.41,0.01,16.14,6.33,16.12,15.03
			c-0.02,8.69-6.74,14.93-16.19,14.96C127.95,294.05,117.59,294.03,107.22,294.03z"/>
	</g>
</g>
</svg>
